solid thinflatplate
 facet normal 0.866025 0 -0.500001
  outer loop
   vertex 0.00433263 0.01 -0.00249567
   vertex 0.00433263 -0.01 -0.00249567
   vertex 0.00432763 0.01 -0.00250433
  endloop
 endfacet
 facet normal 0.866025 0 -0.500001
  outer loop
   vertex 0.00432763 0.01 -0.00250433
   vertex 0.00433263 -0.01 -0.00249567
   vertex 0.00432763 -0.01 -0.00250433
  endloop
 endfacet
 facet normal 0 1 0
  outer loop
   vertex -0.00432763 0.01 0.00250433
   vertex 0.00433263 0.01 -0.00249567
   vertex -0.00433263 0.01 0.00249567
  endloop
 endfacet
 facet normal 0 1 0
  outer loop
   vertex -0.00433263 0.01 0.00249567
   vertex 0.00433263 0.01 -0.00249567
   vertex 0.00432763 0.01 -0.00250433
  endloop
 endfacet
 facet normal -0.866025 0 0.500001
  outer loop
   vertex -0.00432763 -0.01 0.00250433
   vertex -0.00432763 0.01 0.00250433
   vertex -0.00433263 -0.01 0.00249567
  endloop
 endfacet
 facet normal -0.866025 0 0.500001
  outer loop
   vertex -0.00433263 -0.01 0.00249567
   vertex -0.00432763 0.01 0.00250433
   vertex -0.00433263 0.01 0.00249567
  endloop
 endfacet
 facet normal -0 -1 0
  outer loop
   vertex 0.00433263 -0.01 -0.00249567
   vertex -0.00432763 -0.01 0.00250433
   vertex 0.00432763 -0.01 -0.00250433
  endloop
 endfacet
 facet normal 0 -1 0
  outer loop
   vertex 0.00432763 -0.01 -0.00250433
   vertex -0.00432763 -0.01 0.00250433
   vertex -0.00433263 -0.01 0.00249567
  endloop
 endfacet
 facet normal 0.5 0 0.866026
  outer loop
   vertex -0.00432763 0.01 0.00250433
   vertex -0.00432763 -0.01 0.00250433
   vertex 0.00433263 0.01 -0.00249567
  endloop
 endfacet
 facet normal 0.5 0 0.866026
  outer loop
   vertex 0.00433263 0.01 -0.00249567
   vertex -0.00432763 -0.01 0.00250433
   vertex 0.00433263 -0.01 -0.00249567
  endloop
 endfacet
 facet normal -0.5 0 -0.866026
  outer loop
   vertex -0.00433263 -0.01 0.00249567
   vertex -0.00433263 0.01 0.00249567
   vertex 0.00432763 -0.01 -0.00250433
  endloop
 endfacet
 facet normal -0.5 0 -0.866026
  outer loop
   vertex 0.00432763 -0.01 -0.00250433
   vertex -0.00433263 0.01 0.00249567
   vertex 0.00432763 0.01 -0.00250433
  endloop
 endfacet
endsolid thinflatplate
solid xMin
 facet normal -1 0 0
  outer loop
   vertex -0.204333 -0.21 -0.202504
   vertex -0.204333 0.21 0.202504
   vertex -0.204333 0.21 -0.202504
  endloop
 endfacet
 facet normal -1 0 0
  outer loop
   vertex -0.204333 -0.21 -0.202504
   vertex -0.204333 -0.21 0.202504
   vertex -0.204333 0.21 0.202504
  endloop
 endfacet
endsolid xMin
solid xMax
 facet normal 1 0 0
  outer loop
   vertex 0.604333 -0.21 -0.202504
   vertex 0.604333 0.21 -0.202504
   vertex 0.604333 0.21 0.202504
  endloop
 endfacet
 facet normal 1 0 0
  outer loop
   vertex 0.604333 -0.21 -0.202504
   vertex 0.604333 0.21 0.202504
   vertex 0.604333 -0.21 0.202504
  endloop
 endfacet
endsolid xMax
solid yMin
 facet normal 0 -1 0
  outer loop
   vertex -0.204333 -0.21 -0.202504
   vertex 0.604333 -0.21 -0.202504
   vertex 0.604333 -0.21 0.202504
  endloop
 endfacet
 facet normal 0 -1 0
  outer loop
   vertex -0.204333 -0.21 -0.202504
   vertex 0.604333 -0.21 0.202504
   vertex -0.204333 -0.21 0.202504
  endloop
 endfacet
endsolid yMin
solid yMax
 facet normal 0 1 0
  outer loop
   vertex -0.204333 0.21 -0.202504
   vertex 0.604333 0.21 0.202504
   vertex 0.604333 0.21 -0.202504
  endloop
 endfacet
 facet normal 0 1 0
  outer loop
   vertex -0.204333 0.21 -0.202504
   vertex -0.204333 0.21 0.202504
   vertex 0.604333 0.21 0.202504
  endloop
 endfacet
endsolid yMax
solid zMin
 facet normal 0 0 -1
  outer loop
   vertex -0.204333 -0.21 -0.202504
   vertex -0.204333 0.21 -0.202504
   vertex 0.604333 0.21 -0.202504
  endloop
 endfacet
 facet normal 0 0 -1
  outer loop
   vertex -0.204333 -0.21 -0.202504
   vertex 0.604333 0.21 -0.202504
   vertex 0.604333 -0.21 -0.202504
  endloop
 endfacet
endsolid zMin
solid zMax
 facet normal 0 0 1
  outer loop
   vertex -0.204333 -0.21 0.202504
   vertex 0.604333 0.21 0.202504
   vertex -0.204333 0.21 0.202504
  endloop
 endfacet
 facet normal 0 0 1
  outer loop
   vertex -0.204333 -0.21 0.202504
   vertex 0.604333 -0.21 0.202504
   vertex 0.604333 0.21 0.202504
  endloop
 endfacet
endsolid zMax
