solid thinflatplate
   facet normal 1.000000e+00 0.000000e+00 0.000000e+00
      outer loop
         vertex 5.000000e-03 1.000000e-02 5.000000e-06
         vertex 5.000000e-03 -1.000000e-02 5.000000e-06
         vertex 5.000000e-03 1.000000e-02 -5.000000e-06
      endloop
   endfacet
   facet normal 1.000000e+00 0.000000e+00 0.000000e+00
      outer loop
         vertex 5.000000e-03 1.000000e-02 -5.000000e-06
         vertex 5.000000e-03 -1.000000e-02 5.000000e-06
         vertex 5.000000e-03 -1.000000e-02 -5.000000e-06
      endloop
   endfacet
   facet normal -0.000000e+00 1.000000e+00 0.000000e+00
      outer loop
         vertex -5.000000e-03 1.000000e-02 5.000000e-06
         vertex 5.000000e-03 1.000000e-02 5.000000e-06
         vertex -5.000000e-03 1.000000e-02 -5.000000e-06
      endloop
   endfacet
   facet normal 0.000000e+00 1.000000e+00 0.000000e+00
      outer loop
         vertex -5.000000e-03 1.000000e-02 -5.000000e-06
         vertex 5.000000e-03 1.000000e-02 5.000000e-06
         vertex 5.000000e-03 1.000000e-02 -5.000000e-06
      endloop
   endfacet
   facet normal -1.000000e+00 0.000000e+00 0.000000e+00
      outer loop
         vertex -5.000000e-03 -1.000000e-02 5.000000e-06
         vertex -5.000000e-03 1.000000e-02 5.000000e-06
         vertex -5.000000e-03 -1.000000e-02 -5.000000e-06
      endloop
   endfacet
   facet normal -1.000000e+00 0.000000e+00 0.000000e+00
      outer loop
         vertex -5.000000e-03 -1.000000e-02 -5.000000e-06
         vertex -5.000000e-03 1.000000e-02 5.000000e-06
         vertex -5.000000e-03 1.000000e-02 -5.000000e-06
      endloop
   endfacet
   facet normal -0.000000e+00 -1.000000e+00 -0.000000e+00
      outer loop
         vertex 5.000000e-03 -1.000000e-02 5.000000e-06
         vertex -5.000000e-03 -1.000000e-02 5.000000e-06
         vertex 5.000000e-03 -1.000000e-02 -5.000000e-06
      endloop
   endfacet
   facet normal 0.000000e+00 -1.000000e+00 0.000000e+00
      outer loop
         vertex 5.000000e-03 -1.000000e-02 -5.000000e-06
         vertex -5.000000e-03 -1.000000e-02 5.000000e-06
         vertex -5.000000e-03 -1.000000e-02 -5.000000e-06
      endloop
   endfacet
   facet normal -0.000000e+00 0.000000e+00 1.000000e+00
      outer loop
         vertex -5.000000e-03 1.000000e-02 5.000000e-06
         vertex -5.000000e-03 -1.000000e-02 5.000000e-06
         vertex 5.000000e-03 1.000000e-02 5.000000e-06
      endloop
   endfacet
   facet normal 0.000000e+00 0.000000e+00 1.000000e+00
      outer loop
         vertex 5.000000e-03 1.000000e-02 5.000000e-06
         vertex -5.000000e-03 -1.000000e-02 5.000000e-06
         vertex 5.000000e-03 -1.000000e-02 5.000000e-06
      endloop
   endfacet
   facet normal 0.000000e+00 0.000000e+00 -1.000000e+00
      outer loop
         vertex -5.000000e-03 -1.000000e-02 -5.000000e-06
         vertex -5.000000e-03 1.000000e-02 -5.000000e-06
         vertex 5.000000e-03 -1.000000e-02 -5.000000e-06
      endloop
   endfacet
   facet normal 0.000000e+00 0.000000e+00 -1.000000e+00
      outer loop
         vertex 5.000000e-03 -1.000000e-02 -5.000000e-06
         vertex -5.000000e-03 1.000000e-02 -5.000000e-06
         vertex 5.000000e-03 1.000000e-02 -5.000000e-06
      endloop
   endfacet
endsolid